<svg xmlns="http://www.w3.org/2000/svg" width="235" height="52" viewBox="0 0 235 52" fill="none"><rect x="0" y="0" width="235" height="52" fill="#ffffff" pointer-events="none" data-ilovesvg-bg="1"/>
<path d="M16.4816 27.8214C14.3975 27.155 12.5092 26.825 12.5092 25.4922C12.5092 23.9627 14.0628 23.5312 15.389 23.5946C16.7153 23.6264 18.2057 24.2927 18.8625 25.5557L21.2813 23.5248C20.1887 21.6272 17.5742 20.5292 14.827 20.5292C11.3156 20.561 8.53681 22.2936 8.53681 25.5176C8.53681 28.9447 11.4482 29.9729 13.9617 30.8043C15.9511 31.4389 17.732 31.8705 17.732 33.1969C17.732 34.5233 16.4753 35.1263 14.587 35.0628C12.8629 34.9612 11.1135 34.0981 10.482 32.6702L8 34.8343C9.19361 36.7954 11.8713 38.1282 15.048 38.1282C18.7551 38.1599 21.7992 36.5288 21.7992 33.2033C21.7992 29.7127 18.9825 28.6465 16.469 27.8151L16.4816 27.8214Z" fill="#202020"/>
<path d="M32.8054 34.3765C29.9255 34.4083 27.8099 32.3837 27.8099 29.3184C27.8099 26.253 29.9255 24.2602 32.8054 24.2982C34.46 24.2982 35.8494 24.9646 36.7462 26.1641L39.4618 23.9048C37.8703 21.8104 35.5905 20.5792 32.578 20.5474C27.2794 20.5157 23.8059 24.1713 23.8059 29.2612C23.8059 34.3512 27.2794 38.14 32.578 38.14C35.622 38.14 37.9398 36.7438 39.5628 34.5796L36.7841 32.4155C35.9252 33.6784 34.4663 34.3765 32.8117 34.3765H32.8054Z" fill="#202020"/>
<path d="M55.7319 24.5589C54.6394 22.2297 52.6563 20.5352 49.5428 20.5352C44.7747 20.5352 41.5349 24.1591 41.5349 29.249C41.5349 34.3389 44.781 38.1278 49.5428 38.1278C52.6563 38.1278 54.6394 36.3952 55.7319 34.0026V37.728H59.8685V20.8652H55.7319V24.5589ZM50.667 34.3706C47.8187 34.3706 45.7031 32.3778 45.7031 29.3125C45.7031 26.2471 47.8187 24.2924 50.667 24.2924C53.5152 24.2924 55.7004 26.2217 55.7004 29.3125C55.7004 32.4032 53.5152 34.3706 50.667 34.3706Z" fill="#202020"/>
<path d="M67.4872 13.08H63.3506V37.7617H67.4872V13.08Z" fill="#202020"/>
<path d="M78.9784 20.5352C73.5156 20.5352 70.2379 24.1591 70.2379 29.249C70.2379 34.3389 73.7493 38.1278 79.3763 38.1278C82.3193 38.1278 84.9718 37.0616 86.6264 35.1703L83.6139 32.9744C82.6224 34.0025 81.1004 34.6372 79.3763 34.6055C76.6291 34.6055 74.7092 32.8729 74.444 30.347H87.6495C88.0158 24.6605 84.8012 20.5352 78.9784 20.5352ZM74.444 28.1828C74.7408 25.6569 76.4333 24.0258 79.1805 24.0258C81.9277 24.0258 83.715 25.6251 84.0118 28.1193L74.444 28.1828Z" fill="#202020"/>
<path d="M107.009 20.8672H102.241L95.5532 26.9535V13.08H91.4166V37.7617H95.5532V29.9808L102.772 37.7617H107.672L98.9635 28.4513L107.009 20.8672Z" fill="#202020"/>
<path d="M110.48 37.7593H114.616V20.8267H110.48V37.7593Z" fill="#202020"/>
<path d="M124.223 31.4107V24.2582H127.602V20.8628H124.223V16.2742L120.087 17.2706V20.8628H117.535V24.2582H120.087V32.0073C120.087 37.332 122.866 38.1253 128 37.7255V34.5015C125.221 34.6982 124.23 34.0001 124.23 31.4107H124.223Z" fill="#202020"/>
<path d="M112.562 18.1578C113.957 18.1578 115.088 17.0211 115.088 15.6189C115.088 14.2167 113.957 13.08 112.562 13.08C111.166 13.08 110.035 14.2167 110.035 15.6189C110.035 17.0211 111.166 18.1578 112.562 18.1578Z" fill="#202020"/>
<path d="M140 14C140 11.1716 140 9.75736 140.879 8.87868C141.757 8 143.172 8 146 8H216.767C219.595 8 221.01 8 221.888 8.87868C222.767 9.75736 222.767 11.1716 222.767 14V37.22C222.767 40.0484 222.767 41.4626 221.888 42.3413C221.01 43.22 219.595 43.22 216.767 43.22H146C143.172 43.22 141.757 43.22 140.879 42.3413C140 41.4626 140 40.0484 140 37.22V14Z" fill="#1F2937" fill-opacity="0.059"/>
<path d="M163.19 32.61H158.482V18.0645H163.339C164.765 18.0645 165.989 18.3557 167.011 18.9381C168.034 19.5158 168.818 20.3467 169.362 21.431C169.911 22.5106 170.186 23.8055 170.186 25.316C170.186 26.8311 169.909 28.1332 169.355 29.2222C168.806 30.3112 168.01 31.1493 166.969 31.7364C165.927 32.3188 164.668 32.61 163.19 32.61ZM160.676 30.6924H163.07C164.178 30.6924 165.098 30.484 165.832 30.0674C166.566 29.646 167.116 29.0375 167.48 28.2421C167.845 27.4419 168.027 26.4665 168.027 25.316C168.027 24.1749 167.845 23.2066 167.48 22.4111C167.12 21.6157 166.583 21.012 165.868 20.6C165.153 20.1881 164.265 19.9821 163.205 19.9821H160.676V30.6924ZM177.38 32.8302C176.357 32.8302 175.465 32.5958 174.702 32.127C173.94 31.6583 173.348 31.0025 172.927 30.1597C172.505 29.3169 172.295 28.332 172.295 27.2052C172.295 26.0735 172.505 25.0839 172.927 24.2364C173.348 23.3889 173.94 22.7307 174.702 22.262C175.465 21.7932 176.357 21.5588 177.38 21.5588C178.403 21.5588 179.295 21.7932 180.057 22.262C180.82 22.7307 181.412 23.3889 181.833 24.2364C182.254 25.0839 182.465 26.0735 182.465 27.2052C182.465 28.332 182.254 29.3169 181.833 30.1597C181.412 31.0025 180.82 31.6583 180.057 32.127C179.295 32.5958 178.403 32.8302 177.38 32.8302ZM177.387 31.0475C178.05 31.0475 178.599 30.8723 179.035 30.5219C179.47 30.1715 179.792 29.7052 180.001 29.1228C180.214 28.5404 180.32 27.8988 180.32 27.1981C180.32 26.502 180.214 25.8628 180.001 25.2804C179.792 24.6933 179.47 24.2222 179.035 23.8671C178.599 23.512 178.05 23.3344 177.387 23.3344C176.719 23.3344 176.165 23.512 175.725 23.8671C175.289 24.2222 174.965 24.6933 174.752 25.2804C174.544 25.8628 174.439 26.502 174.439 27.1981C174.439 27.8988 174.544 28.5404 174.752 29.1228C174.965 29.7052 175.289 30.1715 175.725 30.5219C176.165 30.8723 176.719 31.0475 177.387 31.0475ZM189.471 32.8302C188.415 32.8302 187.506 32.591 186.743 32.1128C185.986 31.6299 185.403 30.9646 184.996 30.1171C184.589 29.2695 184.385 28.2989 184.385 27.2052C184.385 26.0972 184.594 25.1195 185.01 24.2719C185.427 23.4196 186.014 22.7544 186.772 22.2762C187.529 21.798 188.422 21.5588 189.449 21.5588C190.278 21.5588 191.017 21.7127 191.665 22.0205C192.314 22.3235 192.837 22.7497 193.235 23.2989C193.637 23.8481 193.876 24.4897 193.952 25.2236H191.885C191.772 24.7123 191.511 24.2719 191.104 23.9026C190.702 23.5333 190.162 23.3486 189.485 23.3486C188.893 23.3486 188.374 23.5049 187.929 23.8174C187.489 24.1251 187.146 24.5655 186.9 25.1384C186.653 25.7066 186.53 26.3789 186.53 27.1554C186.53 27.9509 186.651 28.6374 186.892 29.2151C187.134 29.7928 187.475 30.2402 187.915 30.5574C188.36 30.8747 188.883 31.0333 189.485 31.0333C189.887 31.0333 190.252 30.9599 190.579 30.8131C190.91 30.6616 191.187 30.4462 191.41 30.1668C191.637 29.8874 191.795 29.5513 191.885 29.1583H193.952C193.876 29.8638 193.647 30.4935 193.263 31.0475C192.88 31.6015 192.366 32.0371 191.722 32.3543C191.083 32.6715 190.332 32.8302 189.471 32.8302ZM204.438 24.3642L202.513 24.7052C202.433 24.4589 202.305 24.2246 202.13 24.002C201.959 23.7795 201.727 23.5972 201.434 23.4552C201.14 23.3131 200.773 23.2421 200.333 23.2421C199.731 23.2421 199.229 23.377 198.827 23.6469C198.425 23.9121 198.223 24.2553 198.223 24.6767C198.223 25.0413 198.358 25.3349 198.628 25.5574C198.898 25.78 199.334 25.9623 199.935 26.1043L201.668 26.502C202.672 26.734 203.42 27.0915 203.912 27.5745C204.405 28.0574 204.651 28.6848 204.651 29.4566C204.651 30.11 204.461 30.6924 204.083 31.2037C203.709 31.7104 203.185 32.1081 202.513 32.3969C201.845 32.6857 201.071 32.8302 200.191 32.8302C198.969 32.8302 197.972 32.5697 197.201 32.0489C196.429 31.5233 195.955 30.7776 195.78 29.8117L197.833 29.4992C197.961 30.0342 198.223 30.4391 198.621 30.7137C199.019 30.9836 199.537 31.1185 200.176 31.1185C200.872 31.1185 201.429 30.9741 201.845 30.6853C202.262 30.3917 202.47 30.0342 202.47 29.6128C202.47 29.2719 202.343 28.9855 202.087 28.7535C201.836 28.5214 201.45 28.3463 200.929 28.2279L199.083 27.8231C198.065 27.591 197.312 27.2217 196.824 26.7151C196.341 26.2085 196.1 25.5669 196.1 24.7904C196.1 24.1464 196.28 23.583 196.64 23.1C196.999 22.6171 197.497 22.2407 198.131 21.9708C198.765 21.6962 199.492 21.5588 200.311 21.5588C201.49 21.5588 202.418 21.8145 203.095 22.3259C203.773 22.8325 204.22 23.512 204.438 24.3642Z" fill="#1F2937"/>
</svg>
